# xmcd CD database file
# Copyright (C) 1995 Ti Kan
#
# Track frame offsets:
#	150
#	15610
#	29757
#	46720
#	62380
#	77977
#	93750
#	106972
#	125735
#	141037
#	156515
#	171597
#	187505
#	211667
#	229500
#	246662
#
# Disc length: 3556 seconds
#
# Revision: 1
# Processed by: cddbd v1.4b41PL1 Copyright (c) Steve Scherf et al.
# Submitted via: xmcd 1.4
#
DISCID=d10de210
DTITLE=Diana Ross - All The Great Love Songs
DYEAR=1900
DGENRE=
TTITLE0=You're all I Need To get By
TTITLE1=These Things Will Keep Me Loving You
TTITLE2=I'm Still Waiting
TTITLE3=My Man
TTITLE4=Touch Me In The Morning
TTITLE5=All Of My Life
TTITLE6=Love Me
TTITLE7=After You
TTITLE8=Theme From Mahogony (Do You Know Hwere You're Going To)
TTITLE9=Sorry Doesn't Always Make It Right
TTITLE10=I Thought It Took A Little Time (But Today I Fell In Love)
TTITLE11=All Night Lover
TTITLE12=Sparkle
TTITLE13=It's My Turn
TTITLE14=Cryin' My Heart Out For You
TTITLE15=Endless Love
EXTD=
EXTT0=
EXTT1=
EXTT2=
EXTT3=
EXTT4=
EXTT5=
EXTT6=
EXTT7=
EXTT8=
EXTT9=
EXTT10=
EXTT11=
EXTT12=
EXTT13=
EXTT14=
EXTT15=
PLAYORDER=
